<?xml version="1.0" encoding="iso-8859-1"?>
<!-- Uploaded to: SVG Repo, www.svgrepo.com, Generator: SVG Repo Mixer Tools -->
<svg height="800px" width="800px" version="1.1" id="Layer_1" xmlns="http://www.w3.org/2000/svg" xmlns:xlink="http://www.w3.org/1999/xlink" 
	 viewBox="0 0 512 512" xml:space="preserve">
<g transform="translate(1 1)">
	<g>
		<polygon style="fill:#FFE100;" points="323.267,502.467 186.733,502.467 161.133,417.133 348.867,417.133 		"/>
		<polygon style="fill:#FFE100;" points="144.067,417.133 365.933,417.133 365.933,383 144.067,383 		"/>
	</g>
	<g>
		<polygon style="fill:#FFA800;" points="323.267,417.133 297.667,502.467 323.267,502.467 348.867,417.133 		"/>
		<polygon style="fill:#FFA800;" points="340.333,417.133 365.933,417.133 365.933,383 340.333,383 		"/>
	</g>
	<path style="fill:#FFE100;" d="M365.933,118.467c0,61.44-49.493,110.933-110.933,110.933s-110.933-49.493-110.933-110.933
		S193.56,7.533,255,7.533S365.933,57.88,365.933,118.467"/>
	<path style="fill:#FFA800;" d="M255,7.533c-4.267,0-8.533,0-12.8,0.853c55.467,5.973,98.133,52.907,98.133,110.08
		s-42.667,104.107-98.133,110.08c4.267,0.853,8.533,0.853,12.8,0.853c61.44,0,110.933-49.493,110.933-110.933
		S316.44,7.533,255,7.533"/>
	<path style="fill:#FFFFFF;" d="M255,7.533c4.267,0,8.533,0,12.8,0.853c-55.467,5.973-98.133,52.907-98.133,110.08
		s42.667,104.107,98.133,110.08c-4.267,0.853-8.533,0.853-12.8,0.853c-61.44,0-110.933-49.493-110.933-110.933
		S193.56,7.533,255,7.533"/>
	<g>
		<path style="fill:#00DA6C;" d="M255,340.333c46.933,0,85.333-38.4,85.333-85.333C293.4,255,255,293.4,255,340.333"/>
		<path style="fill:#00DA6C;" d="M255,340.333C255,293.4,216.6,255,169.667,255C169.667,301.933,208.067,340.333,255,340.333"/>
	</g>
	<path d="M255,391.533c-5.12,0-8.533-3.413-8.533-8.533V229.4c0-5.12,3.413-8.533,8.533-8.533s8.533,3.413,8.533,8.533V383
		C263.533,388.12,260.12,391.533,255,391.533z"/>
	<path d="M255,348.867c-5.12,0-8.533-3.413-8.533-8.533c0-52.053,41.813-93.867,93.867-93.867c5.12,0,8.533,3.413,8.533,8.533
		C348.867,307.053,307.053,348.867,255,348.867z M330.947,264.387c-34.987,4.267-63.147,32.427-67.413,67.413
		C299.373,327.533,327.533,299.373,330.947,264.387z"/>
	<path d="M255,348.867c-2.56,0-4.267-0.853-5.973-2.56c-3.413-3.413-3.413-8.533,0-11.947l34.133-34.133
		c3.413-3.413,8.533-3.413,11.947,0c3.413,3.413,3.413,8.533,0,11.947l-34.133,34.133C259.267,348.013,257.56,348.867,255,348.867z"
		/>
	<path d="M255,348.867c-52.053,0-93.867-41.813-93.867-93.867c0-5.12,3.413-8.533,8.533-8.533c52.053,0,93.867,41.813,93.867,93.867
		C263.533,345.453,260.12,348.867,255,348.867z M179.053,264.387c4.267,34.987,32.427,63.147,67.413,67.413
		C242.2,295.96,214.04,267.8,179.053,264.387z"/>
	<path d="M255,348.867c-2.56,0-4.267-0.853-5.973-2.56l-34.133-34.133c-3.413-3.413-3.413-8.533,0-11.947
		c3.413-3.413,8.533-3.413,11.947,0l34.133,34.133c3.413,3.413,3.413,8.533,0,11.947C259.267,348.013,257.56,348.867,255,348.867z"
		/>
	<path d="M255,188.44c-23.893,0-42.667-18.773-42.667-42.667c0-5.12,3.413-8.533,8.533-8.533c5.12,0,8.533,3.413,8.533,8.533
		c0,14.507,11.093,25.6,25.6,25.6c7.68,0,14.507-3.413,19.627-9.387c2.56-2.56,3.413-5.973,2.56-9.387
		c0-3.413-2.56-6.827-5.12-9.387l-44.373-34.987c-6.827-5.12-11.093-12.8-11.947-21.333s1.707-16.213,6.827-22.187
		c8.533-9.387,19.627-15.36,32.427-15.36c23.893,0,42.667,18.773,42.667,42.667c0,5.12-3.413,8.533-8.533,8.533
		c-5.12,0-8.533-3.413-8.533-8.533c0-14.507-11.093-25.6-25.6-25.6c-7.68,0-14.507,3.413-19.627,9.387
		c-2.56,2.56-3.413,5.973-2.56,9.387c0,3.413,2.56,6.827,5.12,9.387l44.373,34.987c6.827,5.12,11.093,12.8,11.947,21.333
		c0.853,8.533-1.707,16.213-6.827,22.187C279.747,182.467,267.8,188.44,255,188.44z"/>
	<path d="M255,203.8c-5.12,0-8.533-3.413-8.533-8.533v-153.6c0-5.12,3.413-8.533,8.533-8.533s8.533,3.413,8.533,8.533v153.6
		C263.533,200.387,260.12,203.8,255,203.8z"/>
	<path d="M255,237.933c-65.707,0-119.467-52.907-119.467-119.467S189.293-1,255-1s119.467,53.76,119.467,119.467
		S320.707,237.933,255,237.933z M255,16.067c-56.32,0-102.4,46.08-102.4,102.4s46.08,102.4,102.4,102.4s102.4-46.08,102.4-102.4
		S311.32,16.067,255,16.067z"/>
	<path d="M323.267,511H186.733c-3.413,0-6.827-2.56-8.533-5.973l-25.6-85.333c0-2.56,0-5.12,1.707-7.68
		c1.707-2.56,4.267-3.413,6.827-3.413h187.733c2.56,0,5.12,0.853,6.827,3.413c1.707,2.56,1.707,5.12,1.707,7.68l-25.6,85.333
		C330.093,508.44,326.68,511,323.267,511z M192.707,493.933H316.44l20.48-68.267H172.227L192.707,493.933z"/>
	<path d="M365.933,425.667H144.067c-5.12,0-8.533-3.413-8.533-8.533V383c0-5.12,3.413-8.533,8.533-8.533h221.867
		c5.12,0,8.533,3.413,8.533,8.533v34.133C374.467,422.253,371.053,425.667,365.933,425.667z M152.6,408.6h204.8v-17.067H152.6V408.6
		z"/>
</g>
</svg>